<svg width="40" height="40" viewBox="0 0 40 40" fill="none" xmlns="http://www.w3.org/2000/svg">
<g clip-path="url(#clip0)">
<path d="M34.3665 4.28491H17.168C17.168 6.34397 17.9859 8.3187 19.4419 9.77468C20.8979 11.2307 22.8726 12.0486 24.9317 12.0486H28.0998V15.1075C28.1026 19.3914 31.5746 22.8636 35.8585 22.8663V5.77689C35.8585 4.95313 35.1907 4.28491 34.3665 4.28491Z" fill="#2684FF"/>
<path d="M25.8566 12.8544H8.6582C8.66086 17.1382 12.1329 20.6104 16.4169 20.6132H19.585V23.6819C19.5905 27.9658 23.0649 31.4355 27.3487 31.4355V14.3466C27.3487 13.5226 26.6807 12.8545 25.8566 12.8545V12.8544Z" fill="url(#paint0_linear)"/>
<path d="M17.3411 21.4188H0.142578C0.142578 25.7066 3.61863 29.1825 7.90628 29.1825H11.0844V32.2413C11.0872 36.5213 14.5532 39.9919 18.8333 40V22.9109C18.8333 22.0869 18.1652 21.4188 17.3411 21.4188Z" fill="url(#paint1_linear)"/>
</g>
<defs>
<linearGradient id="paint0_linear" x1="26.9807" y1="12.8843" x2="19.7092" y2="20.4718" gradientUnits="userSpaceOnUse">
<stop offset="0.18" stop-color="#0052CC"/>
<stop offset="1" stop-color="#2684FF"/>
</linearGradient>
<linearGradient id="paint1_linear" x1="18.9576" y1="21.5034" x2="10.5462" y2="29.779" gradientUnits="userSpaceOnUse">
<stop offset="0.18" stop-color="#0052CC"/>
<stop offset="1" stop-color="#2684FF"/>
</linearGradient>
<clipPath id="clip0">
<rect width="40" height="40" fill="white"/>
</clipPath>
</defs>
</svg>
