<svg width="40" height="40" viewBox="0 0 40 40" fill="none" xmlns="http://www.w3.org/2000/svg">
<path d="M20 36.0312C28.854 36.0312 36.0312 28.854 36.0312 20C36.0312 11.146 28.854 3.96875 20 3.96875C11.146 3.96875 3.96875 11.146 3.96875 20C3.96875 28.854 11.146 36.0312 20 36.0312ZM20 39C9.50606 39 1 30.4939 1 20C1 9.50606 9.50606 1 20 1C30.4939 1 39 9.50606 39 20C39 30.4939 30.4939 39 20 39Z" fill="#333333"/>
<path d="M19.9991 21.9796C21.0924 21.9796 21.9787 21.0934 21.9787 20.0001C21.9787 18.9068 21.0924 18.0205 19.9991 18.0205C18.9058 18.0205 18.0195 18.9068 18.0195 20.0001C18.0195 21.0934 18.9058 21.9796 19.9991 21.9796Z" fill="#333333"/>
<path d="M26.7168 14.4697C27.3726 14.4697 27.9043 13.9381 27.9043 13.2822C27.9043 12.6264 27.3726 12.0947 26.7168 12.0947C26.061 12.0947 25.5293 12.6264 25.5293 13.2822C25.5293 13.9381 26.061 14.4697 26.7168 14.4697Z" fill="#333333"/>
<path d="M19.9991 12.4796C21.0924 12.4796 21.9787 11.5934 21.9787 10.5001C21.9787 9.40679 21.0924 8.52051 19.9991 8.52051C18.9058 8.52051 18.0195 9.40679 18.0195 10.5001C18.0195 11.5934 18.9058 12.4796 19.9991 12.4796Z" fill="#333333"/>
<path d="M29.4991 21.9796C30.5924 21.9796 31.4787 21.0934 31.4787 20.0001C31.4787 18.9068 30.5924 18.0205 29.4991 18.0205C28.4058 18.0205 27.5195 18.9068 27.5195 20.0001C27.5195 21.0934 28.4058 21.9796 29.4991 21.9796Z" fill="#333333"/>
<path d="M26.7178 28.6974C27.8111 28.6974 28.6974 27.8111 28.6974 26.7178C28.6974 25.6246 27.8111 24.7383 26.7178 24.7383C25.6246 24.7383 24.7383 25.6246 24.7383 26.7178C24.7383 27.8111 25.6246 28.6974 26.7178 28.6974Z" fill="#333333"/>
<path d="M19.9991 31.4796C21.0924 31.4796 21.9787 30.5934 21.9787 29.5001C21.9787 28.4068 21.0924 27.5205 19.9991 27.5205C18.9058 27.5205 18.0195 28.4068 18.0195 29.5001C18.0195 30.5934 18.9058 31.4796 19.9991 31.4796Z" fill="#333333"/>
<path d="M13.2823 28.6974C14.3756 28.6974 15.2619 27.8111 15.2619 26.7178C15.2619 25.6246 14.3756 24.7383 13.2823 24.7383C12.189 24.7383 11.3027 25.6246 11.3027 26.7178C11.3027 27.8111 12.189 28.6974 13.2823 28.6974Z" fill="#333333"/>
<path d="M10.4991 21.9796C11.5924 21.9796 12.4787 21.0934 12.4787 20.0001C12.4787 18.9068 11.5924 18.0205 10.4991 18.0205C9.40581 18.0205 8.51953 18.9068 8.51953 20.0001C8.51953 21.0934 9.40581 21.9796 10.4991 21.9796Z" fill="#333333"/>
<path d="M13.2823 15.2619C14.3756 15.2619 15.2619 14.3756 15.2619 13.2823C15.2619 12.189 14.3756 11.3027 13.2823 11.3027C12.189 11.3027 11.3027 12.189 11.3027 13.2823C11.3027 14.3756 12.189 15.2619 13.2823 15.2619Z" fill="#333333"/>
<path d="M18.5996 18.5998L26.0179 12.5828L27.4168 13.9816L21.3997 21.4L18.5996 18.5998Z" fill="#333333"/>
</svg>
