<svg width="40" height="40" viewBox="0 0 40 40" fill="none" xmlns="http://www.w3.org/2000/svg">
<path d="M6.67578 25.95V36.9999H33.3232L39.5495 25.95H6.67578Z" fill="#4285F4"/>
<path d="M13.0784 25.95L19.4831 36.9999H6.67578L13.0784 25.95Z" fill="url(#paint0_linear)"/>
<path d="M13.6199 3.00073L0.449219 25.9507L6.67546 37.0007L21.6971 11.0778L13.6199 3.00073Z" fill="#0F9D58"/>
<path d="M26.3776 3H13.6191L26.9195 25.95H39.5483L26.3776 3Z" fill="#FFCD40"/>
<path d="M26.3784 3.00073H13.6199L0.449219 25.9507L6.67546 37.0007H33.3229L39.5491 25.9507L26.3784 3.00073ZM13.0781 25.9507L19.9992 14.0082L26.9203 25.9507H13.0781Z" fill="url(#paint1_radial)"/>
<defs>
<linearGradient id="paint0_linear" x1="9.91738" y1="31.4969" x2="18.7131" y2="37.9077" gradientUnits="userSpaceOnUse">
<stop stop-color="#1A237E" stop-opacity="0.2"/>
<stop offset="1" stop-color="#1A237E" stop-opacity="0.02"/>
</linearGradient>
<radialGradient id="paint1_radial" cx="0" cy="0" r="1" gradientUnits="userSpaceOnUse" gradientTransform="translate(11.9805 3.34426) scale(38.9414 38.9323)">
<stop stop-color="white" stop-opacity="0.1"/>
<stop offset="1" stop-color="white" stop-opacity="0"/>
</radialGradient>
</defs>
</svg>
