<svg width="40" height="40" viewBox="0 0 40 40" fill="none" xmlns="http://www.w3.org/2000/svg">
<path fill-rule="evenodd" clip-rule="evenodd" d="M9.5 2H24L33 11V35.5C33 36.163 32.7366 36.7989 32.2678 37.2678C31.7989 37.7366 31.163 38 30.5 38H9.5C8.83696 38 8.20107 37.7366 7.73223 37.2678C7.26339 36.7989 7 36.163 7 35.5V4.5C7 3.83696 7.26339 3.20107 7.73223 2.73223C8.20107 2.26339 8.83696 2 9.5 2Z" fill="#0F9D58"/>
<path fill-rule="evenodd" clip-rule="evenodd" d="M7 35C7 35.663 7.26339 36.2989 7.73223 36.7678C8.20107 37.2366 8.83696 37.5 9.5 37.5H30.5C31.163 37.5 31.7989 37.2366 32.2678 36.7678C32.7366 36.2989 33 35.663 33 35V35.5C33 36.163 32.7366 36.7989 32.2678 37.2678C31.7989 37.7366 31.163 38 30.5 38H9.5C8.83696 38 8.20107 37.7366 7.73223 37.2678C7.26339 36.7989 7 36.163 7 35.5V35Z" fill="#263238" fill-opacity="0.1"/>
<path fill-rule="evenodd" clip-rule="evenodd" d="M9.5 2H24V2.5H9.5C8.83696 2.5 8.20107 2.76339 7.73223 3.23223C7.26339 3.70107 7 4.33696 7 5V4.5C7 3.83696 7.26339 3.20107 7.73223 2.73223C8.20107 2.26339 8.83696 2 9.5 2Z" fill="white" fill-opacity="0.2"/>
<path d="M24.5 10L33 18.5V11" fill="url(#paint0_linear)"/>
<path fill-rule="evenodd" clip-rule="evenodd" d="M24 2L33 11H26.5C25.837 11 25.2011 10.7366 24.7322 10.2678C24.2634 9.79893 24 9.16304 24 8.5V2Z" fill="#87CEAC"/>
<path fill-rule="evenodd" clip-rule="evenodd" d="M13 18H27V32H13V18ZM15 20V22H19V20H15ZM15 24V26H19V24H15ZM15 28V30H19V28H15ZM21 20V22H25V20H21ZM21 24V26H25V24H21ZM21 28V30H25V28H21Z" fill="#F1F1F1"/>
<path fill-rule="evenodd" clip-rule="evenodd" d="M9.5 2H24L33 11V35.5C33 36.163 32.7366 36.7989 32.2678 37.2678C31.7989 37.7366 31.163 38 30.5 38H9.5C8.83696 38 8.20107 37.7366 7.73223 37.2678C7.26339 36.7989 7 36.163 7 35.5V4.5C7 3.83696 7.26339 3.20107 7.73223 2.73223C8.20107 2.26339 8.83696 2 9.5 2Z" fill="url(#paint1_radial)" fill-opacity="0.1"/>
<defs>
<linearGradient id="paint0_linear" x1="28.75" y1="10.73" x2="28.75" y2="18.501" gradientUnits="userSpaceOnUse">
<stop stop-color="#BF360C" stop-opacity="0.2"/>
<stop offset="1" stop-color="#BF360C" stop-opacity="0.02"/>
</linearGradient>
<radialGradient id="paint1_radial" cx="0" cy="0" r="1" gradientUnits="userSpaceOnUse" gradientTransform="translate(7.8335 2.75541) scale(41.924)">
<stop stop-color="white"/>
<stop offset="1" stop-color="white" stop-opacity="0"/>
</radialGradient>
</defs>
</svg>
