<svg width="16" height="16" viewBox="0 0 16 16" fill="none" xmlns="http://www.w3.org/2000/svg">
<g clip-path="url(#clip0_1197_1765)">
<path d="M15.5 10C15.5 11.375 14.375 12.5 13 12.5H3C1.625 12.5 0.5 11.375 0.5 10V2.5C0.5 1.125 1.625 0 3 0H13C14.375 0 15.5 1.125 15.5 2.5V10Z" fill="#44618B"/>
<path d="M12.425 6.575C12.425 6.95 12.125 7.25 11.75 7.25H2.3C1.925 7.25 1.625 6.95 1.625 6.575V2.05C1.625 1.675 1.925 1.375 2.3 1.375H11.75C12.125 1.375 12.425 1.675 12.425 2.05V6.575Z" fill="#CAD5DD"/>
<path d="M12.425 7.00078C12.425 7.37578 12.125 7.67578 11.75 7.67578H2.3C1.925 7.67578 1.625 7.37578 1.625 7.00078V2.47578C1.625 2.10078 1.925 1.80078 2.3 1.80078H11.75C12.125 1.80078 12.425 2.10078 12.425 2.47578V7.00078Z" fill="white"/>
<path d="M5.1001 6.54922H5.6001L4.6001 2.94922H4.1001L3.1001 6.54922H3.6001L3.9251 5.37422H4.8251L5.1001 6.54922ZM4.0001 4.92422L4.3251 3.77422L4.6501 4.92422H4.0001ZM5.2251 2.94922V3.39922H6.2501V6.54922H6.7251V3.39922H7.7501V2.94922H5.2251ZM8.5751 6.54922V4.02422L9.2501 6.54922H9.8751L10.5501 4.02422V6.54922H11.0001V2.94922H10.3751L9.5501 5.97422L8.7501 2.94922H8.1251V6.54922H8.5751Z" fill="#333333"/>
<path d="M13.7998 8.60039C13.7998 8.32539 14.0248 8.10039 14.2998 8.10039H15.4998V9.85039H14.2998C14.0248 9.85039 13.7998 9.62539 13.7998 9.35039V8.60039ZM13.7998 6.00039C13.7998 5.72539 14.0248 5.50039 14.2998 5.50039H15.4998V7.25039H14.2998C14.0248 7.25039 13.7998 7.02539 13.7998 6.75039V6.00039ZM13.7998 3.40039C13.7998 3.12539 14.0248 2.90039 14.2998 2.90039H15.4998V4.65039H14.2998C14.0248 4.65039 13.7998 4.42539 13.7998 4.15039V3.40039Z" fill="#2B4666"/>
<path d="M13.7998 8.35039C13.7998 8.07539 14.0248 7.85039 14.2998 7.85039H15.4998V9.60039H14.2998C14.0248 9.60039 13.7998 9.37539 13.7998 9.10039V8.35039ZM13.7998 5.75039C13.7998 5.47539 14.0248 5.25039 14.2998 5.25039H15.4998V7.00039H14.2998C14.0248 7.00039 13.7998 6.77539 13.7998 6.50039V5.75039ZM13.7998 3.15039C13.7998 2.87539 14.0248 2.65039 14.2998 2.65039H15.4998V4.40039H14.2998C14.0248 4.40039 13.7998 4.17539 13.7998 3.90039V3.15039Z" fill="#42ADE2"/>
<path d="M10.25 9.29922C10.25 9.64922 9.975 9.92422 9.625 9.92422H2.25C1.9 9.92422 1.625 9.64922 1.625 9.29922V9.07422C1.625 8.72422 1.9 8.44922 2.25 8.44922H9.625C9.975 8.44922 10.25 8.72422 10.25 9.07422V9.29922Z" fill="#333333"/>
<path d="M9.65 9L11.375 16.025H0.5L2.225 9H9.65Z" fill="#83BF4F"/>
<path d="M9.2502 9L10.6752 15.475H1.2002L2.6252 9H9.2502Z" fill="#699635"/>
<path d="M8.9999 9L10.2249 15.125H1.6499L2.8749 9H8.9999Z" fill="#83BF4F"/>
<path d="M5.55 10.175L5.5 13.025C5.5 13.35 5.175 13.6 4.8 13.6C4.425 13.6 4.15 13.325 4.175 13.025L4.45 10.15C4.475 9.925 4.725 9.75 5.025 9.75L5.05 9.25C4.375 9.25 3.75 9.65 3.675 10.15L3.525 11.15H2.75L2.625 11.775H3.45L3.275 13C3.175 13.75 3.825 14.4 4.75 14.4C5.675 14.4 6.4 13.75 6.375 13L6.3 10.125C6.3 9.9 6.525 9.725 6.85 9.725C7.175 9.725 7.425 9.9 7.425 10.125L7.7 13C7.725 13.325 7.45 13.575 7.075 13.575L7.125 14.4C8.05 14.4 8.7 13.75 8.6 13L8.425 11.775H9.25L9.125 11.15H8.325L8.175 10.15C8.1 9.65 7.5 9.25 6.8 9.25C6.1 9.25 5.575 9.65 5.55 10.175Z" fill="#699635"/>
</g>
<defs>
<clipPath id="clip0_1197_1765">
<rect width="16" height="16" fill="white"/>
</clipPath>
</defs>
</svg>
