<svg width="40" height="40" viewBox="0 0 40 40" fill="none" xmlns="http://www.w3.org/2000/svg">
<g clip-path="url(#clip0)">
<path d="M21.2498 13.3338C24.4717 13.3338 27.0835 10.7219 27.0835 7.50001C27.0835 4.27812 24.4717 1.66626 21.2498 1.66626C18.0279 1.66626 15.416 4.27812 15.416 7.50001C15.416 10.7219 18.0279 13.3338 21.2498 13.3338Z" fill="#7B83EB"/>
<path opacity="0.1" d="M20.8345 8.75H15.5508L15.577 8.86625L15.5795 8.87625L15.607 8.98375C15.991 10.4396 16.9225 11.6909 18.207 12.4763C19.4916 13.2618 21.0299 13.5206 22.5008 13.1988V10.4163C22.4995 9.97474 22.3235 9.55169 22.0113 9.23949C21.6991 8.92729 21.276 8.75132 20.8345 8.75Z" fill="black"/>
<path opacity="0.2" d="M19.5835 10H15.9785C16.4516 10.9975 17.1981 11.8403 18.1312 12.4305C19.0643 13.0206 20.1457 13.3338 21.2498 13.3337V11.6663C21.2484 11.2247 21.0725 10.8017 20.7603 10.4895C20.4481 10.1773 20.025 10.0013 19.5835 10Z" fill="black"/>
<path d="M34.375 13.75C36.7912 13.75 38.75 11.7912 38.75 9.375C38.75 6.95875 36.7912 5 34.375 5C31.9588 5 30 6.95875 30 9.375C30 11.7912 31.9588 13.75 34.375 13.75Z" fill="#5059C9"/>
<path d="M38.1254 15H28.2991C28.087 15 27.8835 15.0843 27.7335 15.2343C27.5834 15.3843 27.4991 15.5878 27.4991 15.8V25.9375C27.4721 27.4047 27.9499 28.8366 28.8526 29.9935C29.7553 31.1504 31.0281 31.9621 32.4579 32.2925C33.3685 32.4836 34.3103 32.4692 35.2146 32.2503C36.1189 32.0315 36.9631 31.6138 37.6856 31.0275C38.4081 30.4413 38.9908 29.7013 39.3912 28.8614C39.7917 28.0215 39.9998 27.1029 40.0004 26.1725V16.875C40.0004 16.3777 39.8028 15.9008 39.4512 15.5492C39.0996 15.1975 38.6227 15 38.1254 15Z" fill="#5059C9"/>
<path d="M31.25 16.875V28.75C31.2512 30.9507 30.526 33.0902 29.1869 34.8366C27.8479 36.583 25.9698 37.8386 23.8442 38.4084C21.7185 38.9783 19.4642 38.8306 17.4311 37.9883C15.398 37.146 13.6998 35.6562 12.6 33.75C12.3595 33.3502 12.1505 32.9323 11.975 32.5C11.8114 32.0924 11.6736 31.6749 11.5625 31.25C11.3564 30.4326 11.2515 29.593 11.25 28.75V16.875C11.2497 16.6287 11.2979 16.3847 11.3921 16.1571C11.4862 15.9294 11.6243 15.7226 11.7984 15.5484C11.9726 15.3743 12.1794 15.2362 12.4071 15.1421C12.6347 15.0479 12.8787 14.9997 13.125 15H29.375C29.6213 14.9997 29.8653 15.0479 30.0929 15.1421C30.3206 15.2362 30.5274 15.3743 30.7016 15.5484C30.8757 15.7226 31.0138 15.9294 31.1079 16.1571C31.2021 16.3847 31.2503 16.6287 31.25 16.875Z" fill="#7B83EB"/>
<path opacity="0.2" d="M19.5835 10H15.9785C16.4516 10.9975 17.1981 11.8403 18.1312 12.4305C19.0643 13.0206 20.1457 13.3338 21.2498 13.3337V11.6663C21.2484 11.2247 21.0725 10.8017 20.7603 10.4895C20.4481 10.1773 20.025 10.0013 19.5835 10Z" fill="black"/>
<path opacity="0.1" d="M22.5 15V30.8375C22.5 31.2143 22.371 31.5798 22.1345 31.8731C21.898 32.1665 21.5682 32.3701 21.2 32.45C21.0824 32.485 20.9602 32.5019 20.8375 32.5H11.975C11.8114 32.0924 11.6736 31.6749 11.5625 31.25C11.3564 30.4326 11.2515 29.593 11.25 28.75V16.875C11.2497 16.6287 11.2979 16.3847 11.3921 16.1571C11.4862 15.9294 11.6243 15.7226 11.7984 15.5484C11.9726 15.3743 12.1794 15.2362 12.4071 15.1421C12.6347 15.0479 12.8787 14.9997 13.125 15H22.5Z" fill="black"/>
<path opacity="0.2" d="M21.25 15V32.0875C21.2518 32.2102 21.235 32.3324 21.2 32.45C21.1201 32.8182 20.9165 33.148 20.6231 33.3845C20.3298 33.621 19.9643 33.75 19.5875 33.75H12.6C12.3595 33.3502 12.1505 32.9323 11.975 32.5C11.8114 32.0924 11.6736 31.6749 11.5625 31.25C11.3564 30.4326 11.2515 29.593 11.25 28.75V16.875C11.2497 16.6287 11.2979 16.3847 11.3921 16.1571C11.4862 15.9294 11.6243 15.7226 11.7984 15.5484C11.9726 15.3743 12.1794 15.2362 12.4071 15.1421C12.6347 15.0479 12.8787 14.9997 13.125 15H21.25Z" fill="black"/>
<path opacity="0.2" d="M21.25 15V29.5875C21.248 30.0278 21.0722 30.4495 20.7609 30.7609C20.4495 31.0722 20.0278 31.248 19.5875 31.25H11.5625C11.3564 30.4326 11.2515 29.593 11.25 28.75V16.875C11.2497 16.6287 11.2979 16.3847 11.3921 16.1571C11.4862 15.9294 11.6243 15.7226 11.7984 15.5484C11.9726 15.3743 12.1794 15.2362 12.4071 15.1421C12.6347 15.0479 12.8787 14.9997 13.125 15H21.25Z" fill="black"/>
<path opacity="0.2" d="M13.125 15C12.8787 14.9997 12.6347 15.0479 12.4071 15.1421C12.1794 15.2362 11.9726 15.3743 11.7984 15.5484C11.6243 15.7226 11.4862 15.9294 11.3921 16.1571C11.2979 16.3847 11.2497 16.6287 11.25 16.875V28.75C11.2515 29.593 11.3564 30.4326 11.5625 31.25H18.3375C18.7778 31.248 19.1995 31.0722 19.5109 30.7609C19.8222 30.4495 19.998 30.0278 20 29.5875V15H13.125Z" fill="black"/>
<path d="M1.66625 10H18.3337C18.7757 10 19.1995 10.1756 19.512 10.488C19.8244 10.8005 20 11.2243 20 11.6663V28.3337C20 28.7757 19.8244 29.1995 19.512 29.512C19.1995 29.8244 18.7757 30 18.3337 30H1.66625C1.22433 30 0.800516 29.8244 0.488033 29.512C0.175551 29.1995 0 28.7757 0 28.3337L0 11.6663C0 11.2243 0.175551 10.8005 0.488033 10.488C0.800516 10.1756 1.22433 10 1.66625 10Z" fill="#4B53BC"/>
<path d="M14.9754 16.2187H11.2379V26.2437H8.78539V16.2187H5.02539V13.7562H14.9754V16.2187Z" fill="white"/>
</g>
<defs>
<clipPath id="clip0">
<rect width="40" height="40" fill="white"/>
</clipPath>
</defs>
</svg>
