<svg width="40" height="40" viewBox="0 0 40 40" fill="none" xmlns="http://www.w3.org/2000/svg">
<path d="M10.7227 24.2203C10.7227 26.0704 9.21137 27.5817 7.36133 27.5817C5.5113 27.5817 4 26.0704 4 24.2203C4 22.3703 5.5113 20.859 7.36133 20.859H10.7227V24.2203Z" fill="#E01E5A"/>
<path d="M12.4141 24.22C12.4141 22.3699 13.9254 20.8586 15.7754 20.8586C17.6254 20.8586 19.1367 22.3699 19.1367 24.22V32.6363C19.1367 34.4864 17.6254 35.9977 15.7754 35.9977C13.9254 35.9977 12.4141 34.4864 12.4141 32.6363V24.22Z" fill="#E01E5A"/>
<path d="M15.7754 10.7227C13.9254 10.7227 12.4141 9.21137 12.4141 7.36133C12.4141 5.5113 13.9254 4 15.7754 4C17.6254 4 19.1367 5.5113 19.1367 7.36133V10.7227H15.7754Z" fill="#36C5F0"/>
<path d="M15.7777 12.4166C17.6277 12.4166 19.139 13.9279 19.139 15.778C19.139 17.628 17.6277 19.1393 15.7777 19.1393H7.36133C5.5113 19.1393 4 17.628 4 15.778C4 13.9279 5.5113 12.4166 7.36133 12.4166H15.7777Z" fill="#36C5F0"/>
<path d="M29.2734 15.778C29.2734 13.9279 30.7847 12.4166 32.6348 12.4166C34.4848 12.4166 35.9961 13.9279 35.9961 15.778C35.9961 17.628 34.4848 19.1393 32.6348 19.1393H29.2734V15.778Z" fill="#2EB67D"/>
<path d="M27.582 15.7777C27.582 17.6277 26.0707 19.139 24.2207 19.139C22.3707 19.139 20.8594 17.6277 20.8594 15.7777V7.36133C20.8594 5.5113 22.3707 4 24.2207 4C26.0707 4 27.582 5.5113 27.582 7.36133V15.7777Z" fill="#2EB67D"/>
<path d="M24.2188 29.275C26.0688 29.275 27.5801 30.7863 27.5801 32.6364C27.5801 34.4864 26.0688 35.9977 24.2188 35.9977C22.3687 35.9977 20.8574 34.4864 20.8574 32.6364V29.275H24.2188Z" fill="#ECB22E"/>
<path d="M24.2207 27.5814C22.3707 27.5814 20.8594 26.0701 20.8594 24.2201C20.8594 22.3701 22.3707 20.8588 24.2207 20.8588H32.6371C34.4871 20.8588 35.9984 22.3701 35.9984 24.2201C35.9984 26.0701 34.4871 27.5814 32.6371 27.5814H24.2207Z" fill="#ECB22E"/>
</svg>
